<?xml version="1.0" encoding="UTF-8" standalone="no"?>
<!DOCTYPE svg PUBLIC "-//W3C//DTD SVG 1.1//EN" "http://www.w3.org/Graphics/SVG/1.1/DTD/svg11.dtd">
<svg width="100%" height="100%" viewBox="0 0 1920 1080" version="1.1" xmlns="http://www.w3.org/2000/svg" xmlns:xlink="http://www.w3.org/1999/xlink" xml:space="preserve" xmlns:serif="http://www.serif.com/" style="fill-rule:evenodd;clip-rule:evenodd;stroke-linejoin:round;stroke-miterlimit:2;">
    <g transform="matrix(1.32259,0,0,1.32259,-2222.76,-7477.13)">
        <path d="M2484.83,5950.43L2505.61,5950.43L2505.61,5950.47L2597.47,5950.47L2597.47,5972.65L2505.61,5972.65L2505.61,6054.57L2597.47,6054.57L2597.47,6076.74L2486.89,6076.74L2486.89,6076.71L2484.83,6076.71L2484.83,5950.43ZM2593.38,6003.18L2593.38,6022.05L2523.28,6022.05L2523.28,6003.18L2593.38,6003.18Z" style="fill:rgb(103,181,227);"/>
    </g>
    <g transform="matrix(1.32259,0,0,1.32259,-2220.26,-7476.2)">
        <path d="M2629,5980.15C2629,5980.15 2620.63,5952.8 2635.44,5936.68C2650.24,5920.56 2711.93,5869.11 2711.93,5869.11C2711.93,5869.11 2713.67,5905.82 2700.16,5917.61C2686.65,5929.41 2629,5980.15 2629,5980.15Z" style="fill:rgb(103,181,227);"/>
    </g>
    <g transform="matrix(2.27917,0,0,2.27917,-4736.31,-13082.8)">
        <path d="M2629,5980.15C2629,5980.15 2622.63,5952.8 2637.44,5936.68C2652.24,5920.56 2711.93,5869.11 2711.93,5869.11C2711.93,5869.11 2713.67,5905.82 2700.16,5917.61C2686.65,5929.41 2629,5980.15 2629,5980.15Z" style="fill:rgb(46,64,110);"/>
    </g>
    <g transform="matrix(2.27917,0,0,2.27917,-4736.31,-12974)">
        <path d="M2629,5980.15C2629,5980.15 2622.63,5952.8 2637.44,5936.68C2652.24,5920.56 2773.15,5814.98 2773.15,5814.98C2773.15,5814.98 2774.9,5851.69 2761.38,5863.48C2747.87,5875.28 2629,5980.15 2629,5980.15Z" style="fill:rgb(103,181,227);"/>
    </g>
    <g transform="matrix(1.32259,0,0,1.32259,-2222.76,-7477.13)">
        <path d="M2283.07,6076.48C2283.07,6076.48 2312.62,5969.22 2316.26,5957.4C2319.89,5945.59 2332.39,5946.7 2336.34,5955.54C2340.28,5964.38 2376.93,6046.2 2376.93,6046.2C2376.93,6046.2 2410.76,5968.42 2416.05,5956.27C2421.34,5944.11 2434.71,5947.37 2437.9,5961.54C2441.1,5975.72 2469.6,6076.36 2469.6,6076.36L2448.07,6076.36L2423.96,5987.47C2423.96,5987.47 2392.67,6057.65 2387.43,6069.24C2382.18,6080.84 2370.41,6080.12 2364.71,6068.24C2359,6056.36 2328.52,5987.19 2328.52,5987.19L2304.5,6076.74L2283.07,6076.48Z" style="fill:rgb(103,181,227);"/>
    </g>
    <g transform="matrix(1.32259,0,0,1.32259,-2223.34,-7477.54)">
        <path d="M2143.6,5950.69L2171.7,5950.69L2222.39,6009.28L2272.65,5950.89L2300.03,5950.6L2232.73,6028.87L2232.73,6076.13L2211.09,6076.13L2211.09,6028.98L2143.6,5950.69Z" style="fill:rgb(46,64,110);"/>
    </g>
    <g transform="matrix(1.32259,0,0,1.32259,-2222.76,-7477.13)">
        <path d="M2054.16,5949.97L2076.06,5949.97L2076.06,6055.31L2161.83,6055.31L2161.83,6076.64L2076.06,6076.64L2076.06,6076.65L2054.16,6076.65L2054.16,5949.97Z" style="fill:rgb(46,64,110);"/>
    </g>
    <g transform="matrix(1.32259,0,0,1.32259,-2222.76,-7477.13)">
        <path d="M1952.66,5950.06L2039.09,5950.06L2039.09,5972.71L1952.66,5972.71L1952.66,6076.65L1930.76,6076.65L1930.76,5949.97L1952.66,5949.97L1952.66,5950.06ZM2033.11,6004.73L2033.11,6024.78L1968.99,6024.78L1968.99,6004.73L2033.11,6004.73Z" style="fill:rgb(46,64,110);"/>
    </g>
    <g transform="matrix(1.32259,0,0,1.32259,-2222.76,-7477.13)">
        <path d="M2683.97,6001.57L2709.57,6029.51L2711.99,6028.39L2708.97,6016.01L2716.62,6009.47L2739.74,6033.91L2743.8,6029.87L2731.95,5995.7C2731.95,5995.7 2749.87,5980.12 2754.03,5975.91C2758.2,5971.7 2755.48,5967.04 2753.73,5965.2C2751.98,5963.36 2746.62,5961.76 2741.59,5965.14C2736.56,5968.52 2720.47,5983.42 2720.47,5983.42L2687.05,5968.9L2682.84,5972.83L2704.87,5997.51L2698.49,6003.99L2686.34,5999.94L2683.97,6001.57Z" style="fill:white;"/>
    </g>
</svg>
